<svg width="740" height="448" viewBox="0 0 740 448" fill="none" xmlns="http://www.w3.org/2000/svg">
<rect width="740" height="448" fill="#1E1E1E"/>
<rect width="740" height="448" fill="#E8E8E8"/>
<rect width="138" height="448" fill="#575757"/>
<rect x="138" width="602" height="42" fill="white"/>
<rect x="151" y="51" width="131" height="63" rx="10" fill="#5AA4F9"/>
<rect x="299" y="51" width="131" height="63" rx="10" fill="#87CFFD"/>
<rect x="447" y="51" width="131" height="63" rx="10" fill="#5CEFFF"/>
<rect x="595" y="51" width="131" height="63" rx="10" fill="#FD7272"/>
<rect x="438" y="123" width="288" height="153" rx="10" fill="#D9D9D9"/>
<rect x="151" y="285" width="279" height="153" rx="10" fill="#D9D9D9"/>
<rect x="438" y="285" width="288" height="153" rx="10" fill="#D9D9D9"/>
<rect x="151" y="123" width="131" height="153" rx="10" fill="#D9D9D9"/>
<rect x="299" y="123" width="131" height="153" rx="10" fill="#D9D9D9"/>
<path d="M164.38 78H162.568V70.944H160.24V69.432H166.708V70.944H164.38V78ZM172.993 74.712C172.993 75.256 172.917 75.74 172.765 76.164C172.621 76.588 172.409 76.948 172.129 77.244C171.857 77.532 171.525 77.752 171.133 77.904C170.741 78.048 170.297 78.12 169.801 78.12C169.345 78.12 168.921 78.048 168.529 77.904C168.145 77.752 167.813 77.532 167.533 77.244C167.253 76.948 167.033 76.588 166.873 76.164C166.721 75.74 166.645 75.256 166.645 74.712C166.645 73.984 166.773 73.372 167.029 72.876C167.285 72.372 167.653 71.988 168.133 71.724C168.613 71.46 169.181 71.328 169.837 71.328C170.453 71.328 170.997 71.46 171.469 71.724C171.941 71.988 172.313 72.372 172.585 72.876C172.857 73.372 172.993 73.984 172.993 74.712ZM168.469 74.712C168.469 75.144 168.513 75.508 168.601 75.804C168.697 76.092 168.845 76.312 169.045 76.464C169.245 76.608 169.505 76.68 169.825 76.68C170.145 76.68 170.401 76.608 170.593 76.464C170.793 76.312 170.937 76.092 171.025 75.804C171.121 75.508 171.169 75.144 171.169 74.712C171.169 74.28 171.121 73.92 171.025 73.632C170.937 73.344 170.793 73.128 170.593 72.984C170.393 72.84 170.133 72.768 169.813 72.768C169.341 72.768 168.997 72.932 168.781 73.26C168.573 73.58 168.469 74.064 168.469 74.712ZM177.231 76.692C177.431 76.692 177.623 76.672 177.807 76.632C177.991 76.592 178.175 76.544 178.359 76.488V77.82C178.167 77.9 177.927 77.968 177.639 78.024C177.359 78.088 177.051 78.12 176.715 78.12C176.323 78.12 175.971 78.056 175.659 77.928C175.355 77.8 175.111 77.58 174.927 77.268C174.751 76.948 174.663 76.508 174.663 75.948V72.792H173.811V72.036L174.795 71.436L175.311 70.056H176.451V71.448H178.287V72.792H176.451V75.948C176.451 76.196 176.523 76.384 176.667 76.512C176.811 76.632 176.999 76.692 177.231 76.692ZM182.362 71.316C183.242 71.316 183.914 71.508 184.378 71.892C184.85 72.268 185.086 72.848 185.086 73.632V78H183.838L183.49 77.112H183.442C183.258 77.344 183.066 77.536 182.866 77.688C182.674 77.84 182.45 77.948 182.194 78.012C181.946 78.084 181.638 78.12 181.27 78.12C180.886 78.12 180.538 78.048 180.226 77.904C179.922 77.752 179.682 77.524 179.506 77.22C179.33 76.908 179.242 76.516 179.242 76.044C179.242 75.348 179.486 74.836 179.974 74.508C180.462 74.172 181.194 73.988 182.17 73.956L183.31 73.92V73.632C183.31 73.288 183.218 73.036 183.034 72.876C182.858 72.716 182.61 72.636 182.29 72.636C181.97 72.636 181.658 72.684 181.354 72.78C181.05 72.868 180.746 72.98 180.442 73.116L179.854 71.904C180.206 71.72 180.594 71.576 181.018 71.472C181.45 71.368 181.898 71.316 182.362 71.316ZM182.614 74.988C182.038 75.004 181.638 75.108 181.414 75.3C181.19 75.492 181.078 75.744 181.078 76.056C181.078 76.328 181.158 76.524 181.318 76.644C181.478 76.756 181.686 76.812 181.942 76.812C182.326 76.812 182.65 76.7 182.914 76.476C183.178 76.244 183.31 75.92 183.31 75.504V74.964L182.614 74.988ZM188.704 78H186.916V68.88H188.704V78Z" fill="#252525"/>
<path d="M314.324 78L313.7 75.96H310.58L309.956 78H308L311.024 69.396H313.244L316.28 78H314.324ZM312.644 72.444C312.604 72.308 312.552 72.136 312.488 71.928C312.424 71.72 312.36 71.508 312.296 71.292C312.232 71.076 312.18 70.888 312.14 70.728C312.1 70.888 312.044 71.088 311.972 71.328C311.908 71.56 311.844 71.784 311.78 72C311.724 72.208 311.68 72.356 311.648 72.444L311.036 74.436H313.268L312.644 72.444ZM319.885 78.12C319.237 78.12 318.685 78.004 318.229 77.772C317.773 77.532 317.425 77.164 317.185 76.668C316.945 76.172 316.825 75.536 316.825 74.76C316.825 73.96 316.961 73.308 317.233 72.804C317.505 72.3 317.881 71.928 318.361 71.688C318.849 71.448 319.409 71.328 320.041 71.328C320.489 71.328 320.877 71.372 321.205 71.46C321.541 71.548 321.833 71.652 322.081 71.772L321.553 73.152C321.273 73.04 321.009 72.948 320.761 72.876C320.521 72.804 320.281 72.768 320.041 72.768C319.729 72.768 319.469 72.844 319.261 72.996C319.053 73.14 318.897 73.36 318.793 73.656C318.697 73.944 318.649 74.308 318.649 74.748C318.649 75.18 318.701 75.54 318.805 75.828C318.917 76.108 319.077 76.32 319.285 76.464C319.493 76.6 319.745 76.668 320.041 76.668C320.417 76.668 320.749 76.62 321.037 76.524C321.325 76.42 321.605 76.28 321.877 76.104V77.628C321.605 77.804 321.317 77.928 321.013 78C320.717 78.08 320.341 78.12 319.885 78.12ZM329.397 71.448V78H328.029L327.789 77.16H327.693C327.557 77.384 327.381 77.568 327.165 77.712C326.957 77.848 326.725 77.948 326.469 78.012C326.213 78.084 325.949 78.12 325.677 78.12C325.213 78.12 324.805 78.036 324.453 77.868C324.101 77.7 323.829 77.44 323.637 77.088C323.445 76.736 323.349 76.28 323.349 75.72V71.448H325.137V75.276C325.137 75.74 325.221 76.092 325.389 76.332C325.557 76.572 325.825 76.692 326.193 76.692C326.561 76.692 326.845 76.608 327.045 76.44C327.253 76.272 327.397 76.028 327.477 75.708C327.565 75.388 327.609 74.996 327.609 74.532V71.448H329.397ZM338.964 71.328C339.708 71.328 340.268 71.52 340.644 71.904C341.028 72.28 341.22 72.888 341.22 73.728V78H339.432V74.172C339.432 73.7 339.352 73.348 339.192 73.116C339.032 72.876 338.784 72.756 338.448 72.756C337.976 72.756 337.64 72.924 337.44 73.26C337.24 73.596 337.14 74.08 337.14 74.712V78H335.352V74.172C335.352 73.86 335.316 73.6 335.244 73.392C335.172 73.184 335.064 73.028 334.92 72.924C334.776 72.812 334.592 72.756 334.368 72.756C334.04 72.756 333.78 72.84 333.588 73.008C333.396 73.176 333.26 73.42 333.18 73.74C333.1 74.06 333.06 74.452 333.06 74.916V78H331.272V71.448H332.64L332.88 72.288H332.976C333.112 72.064 333.28 71.884 333.48 71.748C333.68 71.604 333.9 71.5 334.14 71.436C334.388 71.364 334.636 71.328 334.884 71.328C335.364 71.328 335.772 71.408 336.108 71.568C336.444 71.72 336.7 71.96 336.876 72.288H337.032C337.232 71.952 337.508 71.708 337.86 71.556C338.22 71.404 338.588 71.328 338.964 71.328ZM349.073 71.448V78H347.705L347.465 77.16H347.369C347.233 77.384 347.057 77.568 346.841 77.712C346.633 77.848 346.401 77.948 346.145 78.012C345.889 78.084 345.625 78.12 345.353 78.12C344.889 78.12 344.481 78.036 344.129 77.868C343.777 77.7 343.505 77.44 343.313 77.088C343.121 76.736 343.025 76.28 343.025 75.72V71.448H344.813V75.276C344.813 75.74 344.897 76.092 345.065 76.332C345.233 76.572 345.501 76.692 345.869 76.692C346.237 76.692 346.521 76.608 346.721 76.44C346.929 76.272 347.073 76.028 347.153 75.708C347.241 75.388 347.285 74.996 347.285 74.532V71.448H349.073ZM352.736 78H350.948V68.88H352.736V78ZM357.292 71.316C358.172 71.316 358.844 71.508 359.308 71.892C359.78 72.268 360.016 72.848 360.016 73.632V78H358.768L358.42 77.112H358.372C358.188 77.344 357.996 77.536 357.796 77.688C357.604 77.84 357.38 77.948 357.124 78.012C356.876 78.084 356.568 78.12 356.2 78.12C355.816 78.12 355.468 78.048 355.156 77.904C354.852 77.752 354.612 77.524 354.436 77.22C354.26 76.908 354.172 76.516 354.172 76.044C354.172 75.348 354.416 74.836 354.904 74.508C355.392 74.172 356.124 73.988 357.1 73.956L358.24 73.92V73.632C358.24 73.288 358.148 73.036 357.964 72.876C357.788 72.716 357.54 72.636 357.22 72.636C356.9 72.636 356.588 72.684 356.284 72.78C355.98 72.868 355.676 72.98 355.372 73.116L354.784 71.904C355.136 71.72 355.524 71.576 355.948 71.472C356.38 71.368 356.828 71.316 357.292 71.316ZM357.544 74.988C356.968 75.004 356.568 75.108 356.344 75.3C356.12 75.492 356.008 75.744 356.008 76.056C356.008 76.328 356.088 76.524 356.248 76.644C356.408 76.756 356.616 76.812 356.872 76.812C357.256 76.812 357.58 76.7 357.844 76.476C358.108 76.244 358.24 75.92 358.24 75.504V74.964L357.544 74.988ZM363.922 78.12C363.194 78.12 362.598 77.836 362.134 77.268C361.678 76.692 361.45 75.848 361.45 74.736C361.45 73.616 361.682 72.768 362.146 72.192C362.61 71.616 363.218 71.328 363.97 71.328C364.282 71.328 364.558 71.372 364.798 71.46C365.038 71.54 365.242 71.652 365.41 71.796C365.586 71.94 365.734 72.104 365.854 72.288H365.914C365.89 72.16 365.862 71.976 365.83 71.736C365.798 71.488 365.782 71.236 365.782 70.98V68.88H367.57V78H366.202L365.854 77.148H365.782C365.67 77.324 365.526 77.488 365.35 77.64C365.182 77.784 364.982 77.9 364.75 77.988C364.518 78.076 364.242 78.12 363.922 78.12ZM364.546 76.692C365.042 76.692 365.39 76.548 365.59 76.26C365.79 75.964 365.894 75.524 365.902 74.94V74.748C365.902 74.108 365.802 73.62 365.602 73.284C365.41 72.948 365.05 72.78 364.522 72.78C364.13 72.78 363.822 72.952 363.598 73.296C363.374 73.632 363.262 74.12 363.262 74.76C363.262 75.4 363.374 75.884 363.598 76.212C363.822 76.532 364.138 76.692 364.546 76.692ZM375.392 74.712C375.392 75.256 375.316 75.74 375.164 76.164C375.02 76.588 374.808 76.948 374.528 77.244C374.256 77.532 373.924 77.752 373.532 77.904C373.14 78.048 372.696 78.12 372.2 78.12C371.744 78.12 371.32 78.048 370.928 77.904C370.544 77.752 370.212 77.532 369.932 77.244C369.652 76.948 369.432 76.588 369.272 76.164C369.12 75.74 369.044 75.256 369.044 74.712C369.044 73.984 369.172 73.372 369.428 72.876C369.684 72.372 370.052 71.988 370.532 71.724C371.012 71.46 371.58 71.328 372.236 71.328C372.852 71.328 373.396 71.46 373.868 71.724C374.34 71.988 374.712 72.372 374.984 72.876C375.256 73.372 375.392 73.984 375.392 74.712ZM370.868 74.712C370.868 75.144 370.912 75.508 371 75.804C371.096 76.092 371.244 76.312 371.444 76.464C371.644 76.608 371.904 76.68 372.224 76.68C372.544 76.68 372.8 76.608 372.992 76.464C373.192 76.312 373.336 76.092 373.424 75.804C373.52 75.508 373.568 75.144 373.568 74.712C373.568 74.28 373.52 73.92 373.424 73.632C373.336 73.344 373.192 73.128 372.992 72.984C372.792 72.84 372.532 72.768 372.212 72.768C371.74 72.768 371.396 72.932 371.18 73.26C370.972 73.58 370.868 74.064 370.868 74.712Z" fill="#252525"/>
<path d="M462.324 78L461.7 75.96H458.58L457.956 78H456L459.024 69.396H461.244L464.28 78H462.324ZM460.644 72.444C460.604 72.308 460.552 72.136 460.488 71.928C460.424 71.72 460.36 71.508 460.296 71.292C460.232 71.076 460.18 70.888 460.14 70.728C460.1 70.888 460.044 71.088 459.972 71.328C459.908 71.56 459.844 71.784 459.78 72C459.724 72.208 459.68 72.356 459.648 72.444L459.036 74.436H461.268L460.644 72.444ZM466.781 78L464.285 71.448H466.157L467.417 75.18C467.465 75.324 467.505 75.476 467.537 75.636C467.577 75.796 467.605 75.952 467.621 76.104C467.645 76.256 467.661 76.396 467.669 76.524H467.717C467.725 76.388 467.741 76.244 467.765 76.092C467.789 75.94 467.817 75.788 467.849 75.636C467.889 75.476 467.933 75.324 467.981 75.18L469.241 71.448H471.113L468.617 78H466.781ZM474.741 71.316C475.621 71.316 476.293 71.508 476.757 71.892C477.229 72.268 477.465 72.848 477.465 73.632V78H476.217L475.869 77.112H475.821C475.637 77.344 475.445 77.536 475.245 77.688C475.053 77.84 474.829 77.948 474.573 78.012C474.325 78.084 474.017 78.12 473.649 78.12C473.265 78.12 472.917 78.048 472.605 77.904C472.301 77.752 472.061 77.524 471.885 77.22C471.709 76.908 471.621 76.516 471.621 76.044C471.621 75.348 471.865 74.836 472.353 74.508C472.841 74.172 473.573 73.988 474.549 73.956L475.689 73.92V73.632C475.689 73.288 475.597 73.036 475.413 72.876C475.237 72.716 474.989 72.636 474.669 72.636C474.349 72.636 474.037 72.684 473.733 72.78C473.429 72.868 473.125 72.98 472.821 73.116L472.233 71.904C472.585 71.72 472.973 71.576 473.397 71.472C473.829 71.368 474.277 71.316 474.741 71.316ZM474.993 74.988C474.417 75.004 474.017 75.108 473.793 75.3C473.569 75.492 473.457 75.744 473.457 76.056C473.457 76.328 473.537 76.524 473.697 76.644C473.857 76.756 474.065 76.812 474.321 76.812C474.705 76.812 475.029 76.7 475.293 76.476C475.557 76.244 475.689 75.92 475.689 75.504V74.964L474.993 74.988ZM483.015 71.328C483.719 71.328 484.283 71.52 484.707 71.904C485.131 72.28 485.343 72.888 485.343 73.728V78H483.555V74.172C483.555 73.7 483.471 73.348 483.303 73.116C483.135 72.876 482.867 72.756 482.499 72.756C481.955 72.756 481.583 72.944 481.383 73.32C481.183 73.688 481.083 74.22 481.083 74.916V78H479.295V71.448H480.663L480.903 72.288H480.999C481.143 72.064 481.319 71.884 481.527 71.748C481.735 71.604 481.967 71.5 482.223 71.436C482.479 71.364 482.743 71.328 483.015 71.328ZM489.846 78.12C489.198 78.12 488.646 78.004 488.19 77.772C487.734 77.532 487.386 77.164 487.146 76.668C486.906 76.172 486.786 75.536 486.786 74.76C486.786 73.96 486.922 73.308 487.194 72.804C487.466 72.3 487.842 71.928 488.322 71.688C488.81 71.448 489.37 71.328 490.002 71.328C490.45 71.328 490.838 71.372 491.166 71.46C491.502 71.548 491.794 71.652 492.042 71.772L491.514 73.152C491.234 73.04 490.97 72.948 490.722 72.876C490.482 72.804 490.242 72.768 490.002 72.768C489.69 72.768 489.43 72.844 489.222 72.996C489.014 73.14 488.858 73.36 488.754 73.656C488.658 73.944 488.61 74.308 488.61 74.748C488.61 75.18 488.662 75.54 488.766 75.828C488.878 76.108 489.038 76.32 489.246 76.464C489.454 76.6 489.706 76.668 490.002 76.668C490.378 76.668 490.71 76.62 490.998 76.524C491.286 76.42 491.566 76.28 491.838 76.104V77.628C491.566 77.804 491.278 77.928 490.974 78C490.678 78.08 490.302 78.12 489.846 78.12ZM496.046 71.328C496.654 71.328 497.174 71.444 497.606 71.676C498.046 71.908 498.386 72.244 498.626 72.684C498.866 73.124 498.986 73.664 498.986 74.304V75.168H494.762C494.778 75.672 494.926 76.068 495.206 76.356C495.494 76.644 495.89 76.788 496.394 76.788C496.818 76.788 497.202 76.748 497.546 76.668C497.89 76.58 498.246 76.448 498.614 76.272V77.652C498.294 77.812 497.954 77.928 497.594 78C497.242 78.08 496.814 78.12 496.31 78.12C495.654 78.12 495.074 78 494.57 77.76C494.066 77.512 493.67 77.14 493.382 76.644C493.094 76.148 492.95 75.524 492.95 74.772C492.95 74.004 493.078 73.368 493.334 72.864C493.598 72.352 493.962 71.968 494.426 71.712C494.89 71.456 495.43 71.328 496.046 71.328ZM496.058 72.6C495.714 72.6 495.426 72.712 495.194 72.936C494.97 73.16 494.838 73.508 494.798 73.98H497.306C497.306 73.716 497.258 73.48 497.162 73.272C497.074 73.064 496.938 72.9 496.754 72.78C496.57 72.66 496.338 72.6 496.058 72.6Z" fill="#252525"/>
<path d="M607.816 69.432C608.92 69.432 609.724 69.672 610.228 70.152C610.74 70.624 610.996 71.276 610.996 72.108C610.996 72.484 610.94 72.844 610.828 73.188C610.716 73.524 610.528 73.828 610.264 74.1C610.008 74.364 609.668 74.572 609.244 74.724C608.82 74.876 608.296 74.952 607.672 74.952H606.892V78H605.08V69.432H607.816ZM607.72 70.92H606.892V73.464H607.492C607.836 73.464 608.132 73.42 608.38 73.332C608.628 73.244 608.82 73.104 608.956 72.912C609.092 72.72 609.16 72.472 609.16 72.168C609.16 71.744 609.044 71.432 608.812 71.232C608.58 71.024 608.216 70.92 607.72 70.92ZM615.171 71.328C615.779 71.328 616.299 71.444 616.731 71.676C617.171 71.908 617.511 72.244 617.751 72.684C617.991 73.124 618.111 73.664 618.111 74.304V75.168H613.887C613.903 75.672 614.051 76.068 614.331 76.356C614.619 76.644 615.015 76.788 615.519 76.788C615.943 76.788 616.327 76.748 616.671 76.668C617.015 76.58 617.371 76.448 617.739 76.272V77.652C617.419 77.812 617.079 77.928 616.719 78C616.367 78.08 615.939 78.12 615.435 78.12C614.779 78.12 614.199 78 613.695 77.76C613.191 77.512 612.795 77.14 612.507 76.644C612.219 76.148 612.075 75.524 612.075 74.772C612.075 74.004 612.203 73.368 612.459 72.864C612.723 72.352 613.087 71.968 613.551 71.712C614.015 71.456 614.555 71.328 615.171 71.328ZM615.183 72.6C614.839 72.6 614.551 72.712 614.319 72.936C614.095 73.16 613.963 73.508 613.923 73.98H616.431C616.431 73.716 616.383 73.48 616.287 73.272C616.199 73.064 616.063 72.9 615.879 72.78C615.695 72.66 615.463 72.6 615.183 72.6ZM623.281 71.328C623.985 71.328 624.549 71.52 624.973 71.904C625.397 72.28 625.609 72.888 625.609 73.728V78H623.821V74.172C623.821 73.7 623.737 73.348 623.569 73.116C623.401 72.876 623.133 72.756 622.765 72.756C622.221 72.756 621.849 72.944 621.649 73.32C621.449 73.688 621.349 74.22 621.349 74.916V78H619.561V71.448H620.929L621.169 72.288H621.265C621.409 72.064 621.585 71.884 621.793 71.748C622.001 71.604 622.233 71.5 622.489 71.436C622.745 71.364 623.009 71.328 623.281 71.328ZM629.524 78.12C628.796 78.12 628.2 77.836 627.736 77.268C627.28 76.692 627.052 75.848 627.052 74.736C627.052 73.616 627.284 72.768 627.748 72.192C628.212 71.616 628.82 71.328 629.572 71.328C629.884 71.328 630.16 71.372 630.4 71.46C630.64 71.54 630.844 71.652 631.012 71.796C631.188 71.94 631.336 72.104 631.456 72.288H631.516C631.492 72.16 631.464 71.976 631.432 71.736C631.4 71.488 631.384 71.236 631.384 70.98V68.88H633.172V78H631.804L631.456 77.148H631.384C631.272 77.324 631.128 77.488 630.952 77.64C630.784 77.784 630.584 77.9 630.352 77.988C630.12 78.076 629.844 78.12 629.524 78.12ZM630.148 76.692C630.644 76.692 630.992 76.548 631.192 76.26C631.392 75.964 631.496 75.524 631.504 74.94V74.748C631.504 74.108 631.404 73.62 631.204 73.284C631.012 72.948 630.652 72.78 630.124 72.78C629.732 72.78 629.424 72.952 629.2 73.296C628.976 73.632 628.864 74.12 628.864 74.76C628.864 75.4 628.976 75.884 629.2 76.212C629.424 76.532 629.74 76.692 630.148 76.692ZM636.829 71.448V78H635.041V71.448H636.829ZM635.941 68.88C636.205 68.88 636.433 68.944 636.625 69.072C636.817 69.192 636.913 69.42 636.913 69.756C636.913 70.084 636.817 70.312 636.625 70.44C636.433 70.568 636.205 70.632 635.941 70.632C635.669 70.632 635.437 70.568 635.245 70.44C635.061 70.312 634.969 70.084 634.969 69.756C634.969 69.42 635.061 69.192 635.245 69.072C635.437 68.944 635.669 68.88 635.941 68.88ZM641.398 71.328C642.006 71.328 642.526 71.444 642.958 71.676C643.398 71.908 643.738 72.244 643.978 72.684C644.218 73.124 644.338 73.664 644.338 74.304V75.168H640.114C640.13 75.672 640.278 76.068 640.558 76.356C640.846 76.644 641.242 76.788 641.746 76.788C642.17 76.788 642.554 76.748 642.898 76.668C643.242 76.58 643.598 76.448 643.966 76.272V77.652C643.646 77.812 643.306 77.928 642.946 78C642.594 78.08 642.166 78.12 641.662 78.12C641.006 78.12 640.426 78 639.922 77.76C639.418 77.512 639.022 77.14 638.734 76.644C638.446 76.148 638.302 75.524 638.302 74.772C638.302 74.004 638.43 73.368 638.686 72.864C638.95 72.352 639.314 71.968 639.778 71.712C640.242 71.456 640.782 71.328 641.398 71.328ZM641.41 72.6C641.066 72.6 640.778 72.712 640.546 72.936C640.322 73.16 640.19 73.508 640.15 73.98H642.658C642.658 73.716 642.61 73.48 642.514 73.272C642.426 73.064 642.29 72.9 642.106 72.78C641.922 72.66 641.69 72.6 641.41 72.6ZM649.508 71.328C650.212 71.328 650.776 71.52 651.2 71.904C651.624 72.28 651.836 72.888 651.836 73.728V78H650.048V74.172C650.048 73.7 649.964 73.348 649.796 73.116C649.628 72.876 649.36 72.756 648.992 72.756C648.448 72.756 648.076 72.944 647.876 73.32C647.676 73.688 647.576 74.22 647.576 74.916V78H645.788V71.448H647.156L647.396 72.288H647.492C647.636 72.064 647.812 71.884 648.02 71.748C648.228 71.604 648.46 71.5 648.716 71.436C648.972 71.364 649.236 71.328 649.508 71.328ZM656.434 76.692C656.634 76.692 656.826 76.672 657.01 76.632C657.194 76.592 657.378 76.544 657.562 76.488V77.82C657.37 77.9 657.13 77.968 656.842 78.024C656.562 78.088 656.254 78.12 655.918 78.12C655.526 78.12 655.174 78.056 654.862 77.928C654.558 77.8 654.314 77.58 654.13 77.268C653.954 76.948 653.866 76.508 653.866 75.948V72.792H653.014V72.036L653.998 71.436L654.514 70.056H655.654V71.448H657.49V72.792H655.654V75.948C655.654 76.196 655.726 76.384 655.87 76.512C656.014 76.632 656.202 76.692 656.434 76.692ZM661.577 71.328C662.185 71.328 662.705 71.444 663.137 71.676C663.577 71.908 663.917 72.244 664.157 72.684C664.397 73.124 664.517 73.664 664.517 74.304V75.168H660.293C660.309 75.672 660.457 76.068 660.737 76.356C661.025 76.644 661.421 76.788 661.925 76.788C662.349 76.788 662.733 76.748 663.077 76.668C663.421 76.58 663.777 76.448 664.145 76.272V77.652C663.825 77.812 663.485 77.928 663.125 78C662.773 78.08 662.345 78.12 661.841 78.12C661.185 78.12 660.605 78 660.101 77.76C659.597 77.512 659.201 77.14 658.913 76.644C658.625 76.148 658.481 75.524 658.481 74.772C658.481 74.004 658.609 73.368 658.865 72.864C659.129 72.352 659.493 71.968 659.957 71.712C660.421 71.456 660.961 71.328 661.577 71.328ZM661.589 72.6C661.245 72.6 660.957 72.712 660.725 72.936C660.501 73.16 660.369 73.508 660.329 73.98H662.837C662.837 73.716 662.789 73.48 662.693 73.272C662.605 73.064 662.469 72.9 662.285 72.78C662.101 72.66 661.869 72.6 661.589 72.6Z" fill="#252525"/>
</svg>
